HIERARCHY
ROOT Hips
{
	OFFSET 0.000000 0.000000 0.000000 
	CHANNELS 6 Xposition Yposition Zposition Yrotation Zrotation Xrotation 
	JOINT Lumbar
	{
		OFFSET 0.000000 0.000000 0.000000 
		CHANNELS 3 Zrotation Xrotation Yrotation
		JOINT Neck
		{
			OFFSET 0.000000 0.445665 0.000000 
			CHANNELS 3 Zrotation Xrotation Yrotation
			End Site
			{
				OFFSET 0.000000 0.227535 0.000000 
			}
		}
		JOINT RightShoulder
		{
			OFFSET 0.019635 0.377685 0.194865 
			CHANNELS 3 Zrotation Xrotation Yrotation
			JOINT RightElbow
			{
				OFFSET 0.000000 -0.243375 0.000000 
				CHANNELS 2 Zrotation Yrotation
				JOINT RightWrist
				{
					OFFSET 0.000000 -0.264825 0.000000 
					CHANNELS 2 Zrotation Xrotation
					End Site
					{
						OFFSET 0.006600 -0.176220 0.000990 
					}
				}
			}
		}
		JOINT LeftShoulder
		{
			OFFSET 0.019635 0.377685 -0.194865 
			CHANNELS 3 Zrotation Xrotation Yrotation
			JOINT LeftElbow
			{
				OFFSET 0.000000 -0.243375 0.000000 
				CHANNELS 2 Zrotation Yrotation
				JOINT LeftWrist
				{
					OFFSET 0.000000 -0.264825 0.000000 
					CHANNELS 2 Zrotation Xrotation
					End Site
					{
						OFFSET 0.006600 -0.176220 -0.000990 
					}
				}
			}
		}
	}
	JOINT RightHip
	{
		OFFSET 0.052140 -0.069960 0.075570 
		CHANNELS 3 Zrotation Xrotation Yrotation
		JOINT RightKnee
		{
			OFFSET 0.000000 -0.402270 0.000000 
			CHANNELS 1 Zrotation
			JOINT RightAnkle
			{
				OFFSET 0.000000 -0.404085 0.000000 
				CHANNELS 3 Zrotation Xrotation Yrotation
				End Site
				{
					OFFSET 0.204105 -0.089430 0.008415 
				}
			}
		}
	}
	JOINT LeftHip
	{
		OFFSET 0.052140 -0.069960 -0.075570 
		CHANNELS 3 Zrotation Xrotation Yrotation
		JOINT LeftKnee
		{
			OFFSET 0.000000 -0.402270 0.000000 
			CHANNELS 1 Zrotation
			JOINT LeftAnkle
			{
				OFFSET 0.000000 -0.404085 0.000000 
				CHANNELS 3 Zrotation Xrotation Yrotation
				End Site
				{
					OFFSET 0.204105 -0.089430 -0.008415 
				}
			}
		}
	}
}
MOTION
Frames: 27
Frame Time: 0.02
0.42918 -0.174 -1.05884 -261.1966 -71.54328 -14.65288 -13.8127 3.76654 -3.57606 -28.41497 -18.35171 -0.83079 100.79578 3.32952 -15.8946 6.29902 73.74986 -1.73597 -5.01571 93.93305 14.44417 -52.776 14.8382 -86.5794 -10.91414 1.24475 97.46309 -3.59187 -17.91066 -79.27572 -6.29762 -4.88698 -3.2099 123.00533 17.59949 -4.24737 -76.32202 -7.78095 3.34011 2.44259
0.4271 -0.17177 -1.0596 -262.34239 -71.71999 -16.02294 -13.79437 4.02527 -4.36253 -28.56509 -18.60498 -0.83079 100.52979 4.92465 -4.65273 6.99028 75.31808 -1.52139 -4.69414 94.4452 16.06451 -53.72367 14.78498 -86.59994 -10.13501 0.27139 97.35902 -3.38544 -18.12745 -78.64638 -6.28171 -4.86716 -3.19919 123.10873 17.51452 -4.60594 -75.99713 -7.78922 3.35121 2.44789
0.42496 -0.16904 -1.06036 -263.61675 -71.86022 -17.47708 -13.80878 4.23094 -5.2045 -28.70049 -18.84631 -0.83079 100.18269 6.55234 7.61736 7.95199 77.04436 -0.94086 -4.34455 95.0032 17.87352 -54.89578 14.6486 -86.62361 -9.28419 -0.68701 97.22783 -3.00394 -18.15142 -77.8964 -6.28939 -4.86264 -3.19841 123.11028 17.28052 -5.16769 -75.58084 -7.82729 3.38885 2.4682
0.42285 -0.16656 -1.06111 -264.82217 -72.01488 -18.8698 -13.8057 4.44867 -5.99031 -28.84245 -19.09473 -0.83079 99.87735 8.12406 19.05506 8.76254 78.65553 -0.55338 -4.02271 95.51686 19.5515 -55.90727 14.55435 -86.60971 -8.492 -1.62361 97.10717 -2.71412 -18.26511 -77.2067 -6.28516 -4.8504 -3.19257 123.15293 17.11439 -5.63155 -75.21272 -7.85133 3.41544 2.48241
0.42075 -0.16394 -1.06191 -266.08541 -72.1806 -20.37381 -13.8113 4.72028 -6.91213 -28.98992 -19.34302 -0.83079 99.54702 9.88945 32.15159 9.69143 80.45484 -0.06299 -3.63373 96.12949 21.43648 -57.15306 14.44253 -86.73544 -7.58162 -2.69185 96.99101 -2.37898 -18.38431 -76.48643 -6.28416 -4.83998 -3.18817 123.21909 16.95014 -6.12158 -74.81304 -7.87754 3.43758 2.49353
0.4186 -0.16152 -1.0626 -267.25219 -72.31481 -21.66044 -13.80687 4.86641 -7.5616 -29.12 -19.58492 -0.83079 99.25286 11.24913 41.97902 10.4362 81.8969 0.30378 -3.37848 96.54748 22.92809 -57.97482 14.34905 -86.57998 -6.90353 -3.4765 96.86181 -2.09454 -18.44037 -75.80536 -6.28283 -4.83006 -3.18353 123.21301 16.74703 -6.60174 -74.45889 -7.90613 3.47505 2.51445
0.41627 -0.15976 -1.06303 -268.13624 -72.35851 -22.32969 -13.77535 4.67299 -7.44748 -29.21196 -19.82641 -0.83079 99.05709 11.51132 42.6851 10.63486 82.32411 0.24021 -3.51065 96.41003 23.29797 -57.49954 14.30415 -85.59772 -6.88485 -3.50289 96.68266 -1.99144 -18.37381 -75.24661 -6.27336 -4.8165 -3.17492 123.01256 16.45582 -7.03634 -74.2519 -7.93549 3.55217 2.56131
0.41388 -0.15824 -1.06335 -268.91295 -72.37309 -22.77365 -13.73199 4.3559 -7.05648 -29.28516 -20.05828 -0.83079 98.90473 11.35674 40.02158 10.63493 82.38411 0.04101 -3.77696 96.07625 23.26097 -56.603 14.28394 -84.34214 -7.10345 -3.23996 96.49473 -1.94493 -18.24762 -74.73547 -6.26322 -4.80335 -3.16599 122.74567 16.13342 -7.44793 -74.0949 -7.96589 3.64309 2.61704
0.41154 -0.15663 -1.06371 -269.72885 -72.40944 -23.31812 -13.68817 4.09869 -6.78984 -29.3621 -20.28454 -0.83079 98.74701 11.36927 38.78315 10.70662 82.60442 -0.09511 -3.97509 95.83681 23.40165 -55.94829 14.26731 -83.24626 -7.21445 -3.09325 96.32529 -1.87254 -18.14367 -74.21317 -6.25457 -4.79103 -3.1579 122.52226 15.83587 -7.84977 -73.91568 -7.99488 3.72532 2.66711
0.40911 -0.1549 -1.06409 -270.59528 -72.41087 -23.87837 -13.66788 3.82353 -6.53041 -29.45863 -20.55317 -0.83079 98.52629 11.47392 38.03175 10.86276 82.85667 -0.22504 -4.20254 95.57762 23.58132 -55.09279 14.18714 -82.00334 -7.32217 -3.00724 96.09622 -1.79447 -18.05344 -73.64125 -6.24176 -4.77491 -3.14724 122.24114 15.48757 -8.34494 -73.72968 -8.02904 3.81892 2.72469
0.40687 -0.1535 -1.0644 -271.32258 -72.47564 -24.34524 -13.59814 3.55785 -6.19075 -29.51033 -20.73072 -0.83079 98.4475 11.29154 35.45109 10.79685 82.95483 -0.40439 -4.40128 95.31203 23.57859 -54.54725 14.24402 -80.99822 -7.4936 -2.7305 95.9864 -1.74437 -17.92332 -73.18693 -6.23711 -4.76662 -3.14172 122.06341 15.24018 -8.63643 -73.57268 -8.05206 3.89148 2.76839
0.40512 -0.15294 -1.06453 -271.7498 -72.74807 -24.66062 -13.37029 3.34202 -5.68648 -29.44092 -20.6658 -0.83079 98.7553 10.38157 28.66605 10.12574 82.70132 -0.69113 -4.4857 95.07946 23.18871 -55.00577 14.69237 -80.74874 -7.7869 -1.96134 96.23638 -1.75409 -17.69476 -73.03493 -6.2555 -4.77978 -3.15057 122.2082 15.27335 -8.38139 -73.46844 -8.04608 3.90496 2.77277
0.40358 -0.15272 -1.06459 -272.03076 -73.08082 -24.8812 -13.09711 3.14148 -5.11337 -29.32774 -20.50908 -0.83079 99.2032 9.20463 20.16581 9.24396 82.30756 -1.02342 -4.53606 94.84665 22.62603 -55.78126 15.27431 -80.74297 -8.13534 -1.01745 96.60183 -1.7913 -17.42967 -73.0021 -6.28193 -4.80071 -3.16453 122.45622 15.41052 -7.92023 -73.3948 -8.02838 3.8963 2.76263
0.40196 -0.15237 -1.06467 -272.33812 -73.3691 -25.10927 -12.86111 2.93854 -4.57778 -29.23558 -20.3891 -0.83079 99.58474 8.17294 12.40634 8.48429 81.98772 -1.33463 -4.60505 94.61177 22.12917 -56.38094 15.78342 -80.60337 -8.45688 -0.17705 96.89555 -1.81942 -17.18402 -72.9226 -6.30437 -4.81807 -3.17606 122.64352 15.5051 -7.54438 -73.31771 -8.0145 3.89593 2.75821
0.40027 -0.1519 -1.06478 -272.8047 -73.72759 -25.47388 -12.55639 2.71207 -4.00369 -29.13687 -20.28679 -0.83079 99.98182 7.02242 4.61491 7.60771 81.61226 -1.65415 -4.66995 94.37865 21.66818 -57.10008 16.34589 -80.54775 -8.79625 0.77672 97.26896 -1.83599 -16.92384 -72.81372 -6.32828 -4.83574 -3.18807 122.88561 15.58054 -7.19903 -73.19878 -8.00682 3.90316 2.75756
0.39878 -0.15177 -1.06482 -272.91417 -73.95553 -25.54193 -12.38207 2.53982 -3.50026 -29.04307 -20.12977 -0.83079 100.37585 6.0656 -3.37503 6.92567 81.32398 -1.96268 -4.72781 94.14513 21.10138 -57.65121 16.82692 -80.38351 -9.1062 1.53011 97.50552 -1.88122 -16.68651 -72.79289 -6.35096 -4.85448 -3.20026 123.04036 15.71874 -6.7467 -73.17282 -7.98371 3.88963 2.7458
0.39784 -0.15254 -1.06472 -272.00532 -73.80004 -24.75091 -12.59715 2.51457 -3.18189 -28.96131 -19.81136 -0.83079 100.757 5.67443 -12.3426 6.8459 81.31308 -2.25408 -4.82527 93.90529 20.24596 -57.66125 17.06486 -79.81789 -9.34087 1.70398 97.32234 -2.00952 -16.51789 -72.99335 -6.36889 -4.87521 -3.2122 122.91746 16.0247 -6.00375 -73.40286 -7.91821 3.81955 2.70437
0.3971 -0.15364 -1.06456 -270.75507 -73.5129 -23.67737 -12.94175 2.54374 -2.94304 -28.88825 -19.44684 -0.83079 101.1251 5.49529 -21.28936 6.96773 81.3959 -2.5282 -4.90816 93.6673 19.29895 -57.49284 17.21342 -79.14269 -9.53977 1.66654 97.00003 -2.16371 -16.37461 -73.27657 -6.38516 -4.89658 -3.22407 122.7056 16.38681 -5.16849 -73.72381 -7.83806 3.73013 2.6527
0.39627 -0.15457 -1.06442 -269.70656 -73.29132 -22.77624 -13.21502 2.54806 -2.68729 -28.81949 -19.12551 -0.83079 101.47857 5.24467 -29.65413 6.98919 81.43646 -2.79287 -4.96191 93.43257 18.42172 -57.40856 17.3933 -78.54778 -9.74038 1.71236 96.75041 -2.29847 -16.22202 -73.51706 -6.4018 -4.91708 -3.23566 122.54215 16.71023 -4.40599 -73.99855 -7.76635 3.65257 2.60736
0.39547 -0.15558 -1.06429 -268.45731 -73.04702 -21.68705 -13.53894 2.5536 -2.34928 -28.71486 -18.70876 -0.83079 101.92109 4.88218 -40.52045 7.03967 81.47155 -3.12997 -5.15947 93.17928 17.42069 -57.32414 17.61713 -77.83674 -10.00217 1.81462 96.4649 -2.46553 -16.05819 -73.78397 -6.42041 -4.94034 -3.24876 122.34837 17.09247 -3.50778 -74.29538 -7.68678 3.56138 2.55446
0.39463 -0.1565 -1.06413 -267.54562 -72.81878 -20.92219 -13.78922 2.569 -2.2005 -28.68691 -18.47892 -0.83079 102.17655 4.80317 -46.22077 7.08094 81.54084 -3.31438 -5.06209 92.96654 16.65637 -57.19117 17.72645 -77.3331 -10.13016 1.75157 96.21958 -2.57239 -15.92503 -74.01315 -6.43435 -4.95785 -3.25859 122.19551 17.36471 -2.87106 -74.56696 -7.6202 3.49414 2.51502
0.3936 -0.15708 -1.06391 -267.66242 -72.66024 -21.13598 -13.80053 2.60122 -2.57201 -28.87474 -18.79499 -0.83079 101.88876 5.48562 -37.03014 7.0441 81.69326 -3.05567 -4.08782 92.85343 16.5841 -56.98771 17.54049 -77.4755 -9.87175 1.24201 96.11892 -2.49551 -15.86388 -74.12442 -6.4364 -4.95969 -3.25968 122.17543 17.31451 -2.99636 -74.7504 -7.59345 3.49904 2.51591
0.39252 -0.15755 -1.06366 -268.12891 -72.52342 -21.68363 -13.73426 2.64086 -3.12818 -29.13857 -19.29783 -0.83079 101.41787 6.44107 -22.75339 6.993 81.87469 -2.64817 -2.82945 92.78325 16.75101 -56.73665 17.24182 -77.82165 -9.48419 0.5805 96.06309 -2.3591 -15.83397 -74.19325 -6.43367 -4.95561 -3.2574 122.19954 17.15223 -3.38551 -74.90462 -7.58026 3.52858 2.53065
0.39145 -0.15806 -1.06342 -268.42782 -72.38085 -22.07002 -13.70631 2.67518 -3.58917 -29.36369 -19.70342 -0.83079 101.04993 7.2538 -11.20569 6.95139 82.03692 -2.32577 -1.74495 92.70127 16.79898 -56.49228 16.99479 -78.04138 -9.17254 0.01469 95.98624 -2.25713 -15.79437 -74.27634 -6.43269 -4.95393 -3.25644 122.20406 17.0438 -3.64385 -75.06931 -7.56071 3.54616 2.53873
0.39043 -0.15863 -1.06318 -268.75193 -72.21627 -22.48751 -13.66986 2.71972 -4.10128 -29.60642 -20.15934 -0.83079 100.59898 8.15532 2.11846 6.90296 82.23084 -1.93016 -0.47207 92.58698 16.8874 -56.30342 16.74324 -78.39562 -8.78784 -0.6719 95.90694 -2.12487 -15.7372 -74.38275 -6.43343 -4.95345 -3.25634 122.20308 16.92449 -3.946 -75.24826 -7.54157 3.56634 2.54803
0.3893 -0.15904 -1.06294 -269.11029 -72.10448 -22.92222 -13.6311 2.74393 -4.54864 -29.83073 -20.55572 -0.83079 100.2767 8.93047 12.93312 6.86405 82.36056 -1.65045 0.47713 92.54996 16.94895 -55.99187 16.47513 -78.52529 -8.52402 -1.13896 95.84571 -2.04127 -15.72295 -74.43051 -6.4295 -4.9491 -3.25367 122.22567 16.80125 -4.21937 -75.39037 -7.52486 3.58711 2.55814
0.38788 -0.15895 -1.06273 -269.48675 -72.13303 -23.33348 -13.60335 2.71055 -4.78201 -29.9825 -20.73975 -0.83079 100.3629 9.32112 15.72589 6.842 82.34169 -1.73949 0.45077 92.71752 16.88475 -55.33658 16.19218 -77.93505 -8.63461 -0.97368 95.81962 -2.10582 -15.82627 -74.31657 -6.41348 -4.93509 -3.24441 122.29885 16.68749 -4.36184 -75.42869 -7.51252 3.60456 2.5678
